#!OML:ASF F:\VICON\USERDATA\INSTALL\Justin_Nancy\Justin_Nancy.ASF
:FULLY-SPECIFIED
:DEGREES
111
root 5.07817 17.2373 -0.548682 4.69051 -40.5846 0.421831
lowerback 7.11471 1.56771 1.30058
upperback -0.457134 2.26106 1.50136
thorax -4.47529 1.10395 0.57974
lowerneck -17.1717 -3.79927 -9.25222
upperneck 20.9132 -4.33136 6.38076
head 9.81792 -2.05148 3.18568
rclavicle 2.56432e-014 1.90833e-014
rhumerus -28.5439 -1.17522 -86.0863
rradius 51.1697
rwrist 1.39653
rhand -15.9123 10.862
rfingers 7.12502
rthumb 10.2848 -18.8665
lclavicle 2.56432e-014 1.90833e-014
lhumerus -36.438 21.2966 74.5101
lradius 23.1525
lwrist -14.2982
lhand -12.6305 26.5439
lfingers 7.12502
lthumb 13.4494 56.0897
rfemur 1.16952 6.42889 35.4736
rtibia 17.9314
rfoot -14.243 -5.87943
rtoes 13.2147
lfemur -35.8475 -6.49202 -7.78991
ltibia 38.0299
lfoot -9.04024 5.11975
ltoes -4.52854
112
root 4.99636 17.2294 -0.33792 4.93814 -41.2015 0.514313
lowerback 7.1557 1.58952 1.37714
upperback -0.590131 2.30268 1.54188
thorax -4.63581 1.12199 0.571129
lowerneck -17.0025 -3.70677 -9.4915
upperneck 20.7761 -4.15325 6.4121
head 9.72875 -1.98648 3.26078
rclavicle 8.40859e-014 -1.27222e-014
rhumerus -28.379 -0.143601 -86.2568
rradius 51.8669
rwrist 1.19598
rhand -16.1043 10.3091
rfingers 7.12502
rthumb 10.0995 -19.4285
lclavicle 8.40859e-014 -1.27222e-014
lhumerus -36.8322 21.8013 74.6255
lradius 23.0242
lwrist -14.0806
lhand -13.5854 25.7992
lfingers 7.12502
lthumb 12.5288 55.4036
rfemur 2.37901 6.76973 35.0726
rtibia 16.7409
rfoot -14.5644 -5.57981
rtoes 13.3216
lfemur -36.535 -7.13431 -7.41969
ltibia 35.3806
lfoot -9.80336 5.62527
ltoes -9.06596
113
root 4.90899 17.2142 -0.126579 5.29896 -41.8742 0.314191
lowerback 7.2497 1.6735 1.61803
upperback -0.617635 2.44114 1.61193
thorax -4.71108 1.18426 0.490351
lowerneck -17.2381 -3.65549 -9.56932
upperneck 20.7547 -4.0259 6.37965
head 9.75486 -1.93251 3.27823
rclavicle -8.8161e-014 7.95139e-015
rhumerus -28.0472 0.582425 -86.4009
rradius 52.4504
rwrist 1.21307
rhand -16.4346 10.0248
rfingers 7.12502
rthumb 9.78085 -19.728
lclavicle -8.8161e-014 7.95139e-015
lhumerus -37.1126 22.2952 74.7633
lradius 23.0511
lwrist -14.044
lhand -14.4698 25.6001
lfingers 7.12502
lthumb 11.6761 55.2548
rfemur 3.64882 7.09438 34.8703
rtibia 15.6527
rfoot -14.854 -4.83829
rtoes 13.5857
lfemur -36.9442 -7.45443 -7.00647
ltibia 32.7525
lfoot -9.39563 6.83077
ltoes -6.81102
114
root 4.82563 17.1906 0.0746359 5.92071 -42.597 -0.260554
lowerback 7.51299 1.88282 1.95432
upperback -0.749086 2.77126 1.83998
thorax -4.99283 1.33787 0.490475
lowerneck -17.3981 -3.76073 -9.54078
upperneck 20.7411 -4.09441 6.09639
head 9.78025 -1.99037 3.16161
rclavicle -4.17448e-015 -3.97569e-015
rhumerus -27.9663 1.0965 -86.2233
rradius 52.9959
rwrist 1.25043
rhand -16.4679 10.1802
rfingers 7.12502
rthumb 9.74872 -19.5742
lclavicle -4.17448e-015 -3.97569e-015
lhumerus -37.4945 22.7093 75.0012
lradius 23.2125
lwrist -13.9861
lhand -14.9201 25.1951
lfingers 7.12502
lthumb 11.2418 54.8739
rfemur 4.83554 7.59022 34.965
rtibia 14.521
rfoot -14.844 -3.95235
rtoes 13.8225
lfemur -37.464 -8.02236 -6.04481
ltibia 30.3635
lfoot -10.1397 8.44513
ltoes -8.31982
115
root 4.74216 17.1628 0.273691 6.55846 -43.2943 -0.903381
lowerback 7.83102 2.0699 2.35213
upperback -0.872337 3.07976 2.00212
thorax -5.28965 1.47653 0.386206
lowerneck -17.4233 -3.80748 -9.2218
upperneck 20.6204 -4.141 5.68356
head 9.73032 -2.03086 2.95344
rclavicle -5.52621e-014 -3.18055e-015
rhumerus -27.8875 1.51429 -86.1746
rradius 53.4015
rwrist 1.22136
rhand -16.3425 10.4852
rfingers 7.12502
rthumb 9.86972 -19.2635
lclavicle -5.52621e-014 -3.18055e-015
lhumerus -37.6032 22.6986 75.2895
lradius 23.1674
lwrist -13.4475
lhand -15.3974 24.828
lfingers 7.12502
lthumb 10.7815 54.5313
rfemur 6.38433 8.22453 35.1092
rtibia 12.7144
rfoot -14.4016 -3.06412
rtoes 14.0157
lfemur -38.0271 -8.35007 -5.14255
ltibia 28.3358
lfoot -11.0347 10.4997
ltoes -10.8154
116
root 4.63405 17.1499 0.508759 6.66632 -44.0206 -1.01742
lowerback 7.5849 2.12635 2.51678
upperback -0.65806 3.15333 2.03875
thorax -4.91893 1.51365 0.337724
lowerneck -17.7621 -3.68973 -9.02789
upperneck 20.5962 -3.95261 5.50675
head 9.76053 -1.94206 2.88231
rclavicle 2.5842e-015 -4.77083e-015
rhumerus -27.3251 1.94555 -86.3097
rradius 53.4542
rwrist 1.53215
rhand -16.2189 10.4709
rfingers 7.12502
rthumb 9.98897 -19.2721
lclavicle 2.5842e-015 -4.77083e-015
lhumerus -37.6769 23.4419 75.265
lradius 23.2489
lwrist -13.4378
lhand -15.0089 25.5933
lfingers 7.12502
lthumb 11.1562 55.2767
rfemur 8.10581 7.90908 34.631
rtibia 11.2322
rfoot -14.4911 -1.77417
rtoes 12.4937
lfemur -38.1316 -8.48804 -5.02545
ltibia 26.454
lfoot -11.735 12.8675
ltoes -13.2137
117
root 4.50021 17.1581 0.791765 6.298 -44.5978 -0.496347
lowerback 6.63948 2.1044 2.52276
upperback -0.415456 3.07561 1.99956
thorax -4.13076 1.48596 0.345031
lowerneck -17.5952 -3.54113 -9.23267
upperneck 20.4818 -3.69225 5.47753
head 9.67216 -1.84237 2.94212
rclavicle 5.79457e-014 1.59028e-014
rhumerus -27.1138 2.54991 -86.2621
rradius 53.4993
rwrist 1.84593
rhand -15.9918 10.4438
rfingers 7.12502
rthumb 10.208 -19.2885
lclavicle 5.79457e-014 1.59028e-014
lhumerus -38.305 24.4965 75.1001
lradius 23.48
lwrist -14.0838
lhand -14.4231 26.3334
lfingers 7.12502
lthumb 11.7212 55.9854
rfemur 9.98615 8.17174 33.6507
rtibia 9.72226
rfoot -14.3672 -1.49337
rtoes 8.78813
lfemur -38.0532 -9.06044 -5.47579
ltibia 24.8007
lfoot -12.8106 15.2828
ltoes -13.1222
118
root 4.41742 17.1261 0.951694 6.79271 -44.8958 -1.01598
lowerback 7.4476 2.25528 2.50226
upperback -0.766911 3.33389 2.31101
thorax -4.97127 1.60536 0.610918
lowerneck -17.0333 -3.62391 -9.69111
upperneck 20.3387 -3.77505 5.64815
head 9.53899 -1.90499 3.06865
rclavicle -2.84262e-014 2.54444e-014
rhumerus -27.443 2.77323 -85.8786
rradius 53.752
rwrist 1.82189
rhand -15.6993 10.5195
rfingers 7.12502
rthumb 10.4902 -19.1988
lclavicle -2.84262e-014 2.54444e-014
lhumerus -38.6639 24.5995 75.3864
lradius 23.3304
lwrist -14.0629
lhand -14.8427 26.4349
lfingers 7.12502
lthumb 11.3165 56.1096
rfemur 11.567 8.21158 33.8928
rtibia 7.78087
rfoot -13.5581 -0.608543
rtoes 9.66918
lfemur -38.9294 -9.95793 -4.34347
ltibia 23.4218
lfoot -13.4491 17.5209
ltoes -11.0594
119
root 4.31498 17.0979 1.14858 6.92727 -45.211 -1.32859
lowerback 7.74888 2.44995 2.62255
upperback -0.885104 3.62914 2.47473
thorax -5.26812 1.74502 0.663729
lowerneck -16.2716 -3.74466 -10.0471
upperneck 20.0734 -3.94201 5.73723
head 9.33102 -2.00922 3.13814
rclavicle -5.41688e-014 1.59028e-015
rhumerus -27.7429 2.61997 -85.5197
rradius 53.9038
rwrist 1.91995
rhand -15.6627 10.7136
rfingers 7.12502
rthumb 10.5256 -19.0029
lclavicle -5.41688e-014 1.59028e-015
lhumerus -38.7616 24.2557 75.8605
lradius 23.0084
lwrist -13.781
lhand -15.4725 25.9544
lfingers 7.12502
lthumb 10.709 55.6614
rfemur 13.4643 8.22176 33.9129
rtibia 5.88605
rfoot -12.8333 0.0763718
rtoes 10.0376
lfemur -39.2868 -11.3545 -3.40718
ltibia 22.3934
lfoot -14.1569 19.9686
ltoes -9.638
120
root 4.20948 17.0736 1.36053 7.05691 -45.3416 -1.83889
lowerback 7.87169 2.46894 3.14359
upperback -0.792457 3.70757 2.56264
thorax -5.21382 1.7695 0.452382
lowerneck -15.6197 -3.78528 -10.2196
upperneck 19.712 -4.04033 5.85777
head 9.10124 -2.06077 3.19641
rclavicle -9.54166e-014 3.10104e-014
rhumerus -27.8588 2.5538 -85.4025
rradius 53.9795
rwrist 2.02165
rhand -16.1965 10.9226
rfingers 7.12502
rthumb 10.0106 -18.8193
lclavicle -9.54166e-014 3.10104e-014
lhumerus -38.8668 24.4938 75.9418
lradius 22.844
lwrist -14.157
lhand -15.4224 25.9288
lfingers 7.12502
lthumb 10.7573 55.6334
rfemur 15.3382 8.04236 34.0903
rtibia 4.28937
rfoot -12.1421 0.584614
rtoes 9.76253
lfemur -39.28 -11.3985 -3.24418
ltibia 21.6522
lfoot -14.8398 20.199
ltoes -7.82533
121
root 4.10956 17.043 1.55039 7.59672 -45.3246 -2.71465
lowerback 8.23593 2.48608 3.68806
upperback -0.783986 3.80918 2.75055
thorax -5.38879 1.80134 0.316165
lowerneck -15.6287 -3.92375 -10.1577
upperneck 19.7017 -4.24713 5.85536
head 9.1163 -2.15258 3.15799
rclavicle 1.04362e-014 -2.62396e-014
rhumerus -27.8411 2.41925 -85.2465
rradius 53.8831
rwrist 2.05526
rhand -17.0102 10.5897
rfingers 7.12502
rthumb 9.22554 -19.1885
lclavicle 1.04362e-014 -2.62396e-014
lhumerus -38.7306 24.5961 76.14
lradius 22.6646
lwrist -14.3245
lhand -15.324 26.2294
lfingers 7.12502
lthumb 10.8522 55.929
rfemur 18.322 7.7824 34.6177
rtibia -2.8625e-014
rfoot -9.84665 1.37975
rtoes 8.06815
lfemur -39.6243 -11.4095 -2.76169
ltibia 21.2973
lfoot -14.5613 20.2089
ltoes -7.12733
122
root 3.96825 17.0426 1.80634 7.12532 -45.3954 -2.20063
lowerback 7.57174 2.49105 3.43696
upperback -0.588519 3.74351 2.71376
thorax -4.82229 1.78756 0.460791
lowerneck -15.7562 -4.03087 -10.1097
upperneck 19.9221 -4.36814 5.69658
head 9.22257 -2.22364 3.07978
rclavicle 4.74101e-014 1.59028e-015
rhumerus -27.7874 2.28096 -85.0584
rradius 53.571
rwrist 2.39448
rhand -17.1362 10.3956
rfingers 7.12502
rthumb 9.10387 -19.3879
lclavicle 4.74101e-014 1.59028e-015
lhumerus -38.6619 24.6227 76.4504
lradius 22.5535
lwrist -14.056
lhand -15.2445 26.287
lfingers 7.12502
lthumb 10.9289 55.9825
rfemur 19.5124 7.53216 33.9082
rtibia -3.49861e-014
rfoot -9.93701 1.73172
rtoes 5.54184
lfemur -39.2516 -9.57142 -4.8828
ltibia 21.2925
lfoot -13.5596 18.0192
ltoes -8.05335
123
root 3.85231 17.0236 2.00691 6.95471 -45.2764 -2.26008
lowerback 7.85248 2.40185 3.30604
upperback -0.578594 3.63119 2.80042
thorax -4.98583 1.73368 0.623728
lowerneck -15.6295 -4.01271 -10.0693
upperneck 20.1383 -4.36337 5.63286
head 9.27144 -2.23126 3.05498
rclavicle -6.4605e-014 -3.33958e-014
rhumerus -27.9449 2.13821 -84.8946
rradius 53.3469
rwrist 2.73621
rhand -16.5128 10.2391
rfingers 7.12502
rthumb 9.70543 -19.5172
lclavicle -6.4605e-014 -3.33958e-014
lhumerus -38.4737 24.4767 76.6391
lradius 22.225
lwrist -13.8857
lhand -14.9706 26.2092
lfingers 7.12502
lthumb 11.1931 55.8906
rfemur 20.4902 7.10075 33.7322
rtibia -9.54166e-015
rfoot -9.50608 2.31991
rtoes 5.24596
lfemur -39.154 -7.49669 -6.56186
ltibia 21.6358
lfoot -12.1949 15.3657
ltoes -8.4143
124
root 3.73271 17.0003 2.2108 6.88928 -45.1962 -2.63351
lowerback 8.28667 2.41282 3.37025
upperback -0.560745 3.67895 2.91023
thorax -5.21566 1.75235 0.677464
lowerneck -15.4763 -4.04647 -9.96993
upperneck 20.3203 -4.4726 5.67712
head 9.31396 -2.27567 3.04304
rclavicle -2.94201e-014 -8.74653e-015
rhumerus -28.2912 1.7504 -84.6029
rradius 53.08
rwrist 2.83575
rhand -16.3151 10.2106
rfingers 7.12502
rthumb 9.89615 -19.5368
lclavicle -2.94201e-014 -8.74653e-015
lhumerus -38.2236 24.1934 76.8709
lradius 21.8126
lwrist -13.9875
lhand -14.7823 26.1059
lfingers 7.12502
lthumb 11.3747 55.7774
rfemur 21.5878 6.7076 33.7887
rtibia -9.54166e-015
rfoot -8.74176 3.12037
rtoes 3.7178
lfemur -38.9796 -6.97779 -7.1387
ltibia 22.2623
lfoot -11.6098 13.9387
ltoes -7.62281
